<?xml version="1.0" encoding="utf-8"?>
<!-- Generator: Adobe Illustrator 22.0.1, SVG Export Plug-In . SVG Version: 6.00 Build 0)  -->
<svg version="1.1" id="Layer_1" xmlns="http://www.w3.org/2000/svg" xmlns:xlink="http://www.w3.org/1999/xlink" x="0px" y="0px"
	 viewBox="0 0 24 24" style="enable-background:new 0 0 24 24;" xml:space="preserve">
<style type="text/css">
	.st0{fill:#FFFFFF;}
</style>
<path class="st0" d="M22,6h-1V0h-1h-1H5H4H3v6H2C0.9,6,0,6.9,0,8v4l0,0v1v3v2h3v4v2h2h14h2v-6h3v-2v-1v-1.3V13v-1l0,0V8
	C24,6.9,23.1,6,22,6z M5,2h14v4H5V2z M19,22H5v-6h14V22z M20,13c-0.6,0-1-0.4-1-1s0.4-1,1-1s1,0.4,1,1S20.6,13,20,13z"/>
</svg>
