<?xml version="1.0" encoding="utf-8"?>
<!-- Generator: Adobe Illustrator 22.0.1, SVG Export Plug-In . SVG Version: 6.00 Build 0)  -->
<svg version="1.1" id="Layer_1" xmlns="http://www.w3.org/2000/svg" xmlns:xlink="http://www.w3.org/1999/xlink" x="0px" y="0px"
	 viewBox="0 0 24 24" style="enable-background:new 0 0 24 24;" xml:space="preserve">
<path d="M19.5,6C19.3,6,19,6,19,6H6c-3.3,0-6,2.7-6,6s2.7,6,6,6h13v-2H6c-2.2,0-4-1.8-4-4c0-2.2,1.8-4,4-4h13c0,0,0.3,0,0.5,0
	c1.4,0,2.5,1.1,2.5,2.5c0,1.4-1.1,2.5-2.5,2.5c-0.2,0-0.5,0-0.5,0H6c-0.6,0-1-0.4-1-1c0-0.6,0.4-1,1-1h13V9H6c-1.7,0-3,1.3-3,3
	s1.3,3,3,3h13c0,0,0.3,0,0.5,0c2.5,0,4.5-2,4.5-4.5S22,6,19.5,6z"/>
</svg>
