<?xml version="1.0" encoding="utf-8"?>
<!-- Generator: Adobe Illustrator 22.0.1, SVG Export Plug-In . SVG Version: 6.00 Build 0)  -->
<svg version="1.1" id="Layer_1" xmlns="http://www.w3.org/2000/svg" xmlns:xlink="http://www.w3.org/1999/xlink" x="0px" y="0px"
	 viewBox="0 0 24 24" style="enable-background:new 0 0 24 24;" xml:space="preserve">
<g>
	<polygon points="2,16 0,16 0,22 0,24 2,24 8,24 8,22 2,22 	"/>
	<polygon points="0,0 0,2 0,8 2,8 2,2 8,2 8,0 2,0 	"/>
	<polygon points="22,22 16,22 16,24 22,24 24,24 24,22 24,16 22,16 	"/>
	<polygon points="22,0 16,0 16,2 22,2 22,8 24,8 24,2 24,0 	"/>
</g>
</svg>
