<?xml version="1.0" encoding="utf-8"?>
<!-- Generator: Adobe Illustrator 22.0.1, SVG Export Plug-In . SVG Version: 6.00 Build 0)  -->
<svg version="1.1" id="Layer_1" xmlns="http://www.w3.org/2000/svg" xmlns:xlink="http://www.w3.org/1999/xlink" x="0px" y="0px"
	 viewBox="0 0 24 24" style="enable-background:new 0 0 24 24;" xml:space="preserve">
<style type="text/css">
	.st0{fill:#FFFFFF;}
</style>
<g>
	<path class="st0" d="M4,12c0-4.4,3.6-8,8-8c2.1,0,3.9,0.8,5.3,2.1l1.3-1.5C16.9,3,14.6,2,12,2C6.5,2,2,6.5,2,12H0l3,4l3-4H4z"/>
	<path class="st0" d="M21,8l-3,4h2c0,4.4-3.6,8-8,8c-2.1,0-3.9-0.8-5.3-2.1l-1.3,1.5C7.1,21,9.4,22,12,22c5.5,0,10-4.5,10-10h2L21,8
		z"/>
</g>
</svg>
