<?xml version="1.0" encoding="utf-8"?>
<!-- Generator: Adobe Illustrator 22.1.0, SVG Export Plug-In . SVG Version: 6.00 Build 0)  -->
<svg version="1.1" xmlns="http://www.w3.org/2000/svg" xmlns:xlink="http://www.w3.org/1999/xlink" x="0px" y="0px"
	 viewBox="0 0 24 24" style="enable-background:new 0 0 24 24;" xml:space="preserve">
<g id="Layer_1">
	<rect x="19" y="6" width="5" height="2"/>
	<rect y="6" width="13" height="2"/>
	<rect x="11" y="16" width="13" height="2"/>
	<rect y="16" width="5" height="2"/>
	<path d="M8,13c-2.2,0-4,1.8-4,4c0,2.2,1.8,4,4,4s4-1.8,4-4C12,14.8,10.2,13,8,13z M8,19c-1.1,0-2-0.9-2-2c0-1.1,0.9-2,2-2
		s2,0.9,2,2C10,18.1,9.1,19,8,19z"/>
	<path d="M16,3c-2.2,0-4,1.8-4,4c0,2.2,1.8,4,4,4s4-1.8,4-4C20,4.8,18.2,3,16,3z M16,9c-1.1,0-2-0.9-2-2c0-1.1,0.9-2,2-2s2,0.9,2,2
		C18,8.1,17.1,9,16,9z"/>
</g>
<g id="Layer_2">
</g>
</svg>
