<?xml version="1.0" encoding="utf-8"?>
<!-- Generator: Adobe Illustrator 22.0.1, SVG Export Plug-In . SVG Version: 6.00 Build 0)  -->
<svg version="1.1" id="Layer_1" xmlns="http://www.w3.org/2000/svg" xmlns:xlink="http://www.w3.org/1999/xlink" x="0px" y="0px"
	 viewBox="0 0 24 24" style="enable-background:new 0 0 24 24;" xml:space="preserve">
<g>
	<rect x="17" width="2" height="6"/>
	<rect x="5" width="2" height="6"/>
	<path d="M23,3h-3v4h-4V3H8v4H4V3H1C0.4,3,0,3.4,0,4v19c0,0.6,0.4,1,1,1h22c0.6,0,1-0.4,1-1V4C24,3.4,23.6,3,23,3z M22,8v14H2V8H22z
		"/>
	<rect x="4" y="10" width="4" height="4"/>
	<rect x="4" y="16" width="4" height="4"/>
	<rect x="10" y="16" width="4" height="4"/>
	<rect x="16" y="16" width="4" height="4"/>
	<rect x="10" y="10" width="4" height="4"/>
	<rect x="16" y="10" width="4" height="4"/>
</g>
</svg>
