<?xml version="1.0" encoding="utf-8"?>
<!-- Generator: Adobe Illustrator 22.0.0, SVG Export Plug-In . SVG Version: 6.00 Build 0)  -->
<svg version="1.1" id="Layer_1" xmlns="http://www.w3.org/2000/svg" xmlns:xlink="http://www.w3.org/1999/xlink" x="0px" y="0px"
	 viewBox="0 0 24 24" style="enable-background:new 0 0 24 24;" xml:space="preserve">
<g>
	<path d="M12,0C5.4,0,0,5.4,0,12c0,6.6,5.4,12,12,12s12-5.4,12-12C24,5.4,18.6,0,12,0z M12,22C6.5,22,2,17.5,2,12S6.5,2,12,2
		s10,4.5,10,10S17.5,22,12,22z"/>
	<path d="M11.8,16.5c-0.7,0-1.2,0.5-1.2,1.3c0,0.7,0.5,1.2,1.2,1.2c0.7,0,1.2-0.5,1.2-1.2C13,17,12.5,16.5,11.8,16.5z"/>
	<path d="M12.1,5C11,5,9.9,5.3,9.2,5.8l0.5,1.3c0.5-0.4,1.3-0.6,2-0.6c1.3,0,1.9,0.7,1.9,1.7c0,0.9-0.5,1.7-1.4,2.8
		c-1,1.2-1.4,2.4-1.2,3.5l0,0.5h1.6l0-0.5c-0.1-1,0.3-1.9,1.1-3c1-1.1,1.7-2.1,1.7-3.5C15.5,6.4,14.4,5,12.1,5z"/>
</g>
</svg>
