<?xml version="1.0" encoding="utf-8"?>
<!-- Generator: Adobe Illustrator 22.1.0, SVG Export Plug-In . SVG Version: 6.00 Build 0)  -->
<svg version="1.1" id="Layer_1" xmlns="http://www.w3.org/2000/svg" xmlns:xlink="http://www.w3.org/1999/xlink" x="0px" y="0px"
	 viewBox="0 0 24 24" style="enable-background:new 0 0 24 24;" xml:space="preserve">
<g>
	<path d="M22,0H2C0.9,0,0,0.9,0,2v20c0,1.1,0.9,2,2,2h20c1.1,0,2-0.9,2-2V2C24,0.9,23.1,0,22,0z M19,10.8h-3l-0.5,2.5h2.7v2.3h-3.2
		L14.3,20H12l0.8-4.4h-2.1L9.9,20H7.6l0.8-4.4H5.9v-2.3h2.9l0.5-2.5H6.7V8.5h3.1L10.5,4h2.3l-0.8,4.5h2.1L15,4h2.3l-0.8,4.5H19V10.8
		z"/>
	<polygon points="11.1,13.3 13.2,13.3 13.7,10.8 11.6,10.8 	"/>
</g>
</svg>
