<?xml version="1.0" encoding="utf-8"?>
<!-- Generator: Adobe Illustrator 22.0.1, SVG Export Plug-In . SVG Version: 6.00 Build 0)  -->
<svg version="1.1" id="Layer_1" xmlns="http://www.w3.org/2000/svg" xmlns:xlink="http://www.w3.org/1999/xlink" x="0px" y="0px"
	 viewBox="0 0 24 24" style="enable-background:new 0 0 24 24;" xml:space="preserve">
<style type="text/css">
	.st0{fill:#FFFFFF;}
</style>
<g>
	<path class="st0" d="M21,10h-1V8c0-4.4-3.6-8-8-8S4,3.6,4,8h2c0-3.3,2.7-6,6-6s6,2.7,6,6v2H3c-0.6,0-1,0.4-1,1v12c0,0.6,0.4,1,1,1
		h18c0.6,0,1-0.4,1-1V11C22,10.4,21.6,10,21,10z M20,22H4V12h16V22z"/>
	<path class="st0" d="M11,17.7V20h2v-2.3c0.6-0.3,1-1,1-1.7c0-1.1-0.9-2-2-2s-2,0.9-2,2C10,16.7,10.4,17.4,11,17.7z"/>
</g>
</svg>
