<?xml version="1.0" encoding="utf-8"?>
<!-- Generator: Adobe Illustrator 22.0.1, SVG Export Plug-In . SVG Version: 6.00 Build 0)  -->
<svg version="1.1" id="Layer_1" xmlns="http://www.w3.org/2000/svg" xmlns:xlink="http://www.w3.org/1999/xlink" x="0px" y="0px"
	 viewBox="0 0 24 24" style="enable-background:new 0 0 24 24;" xml:space="preserve">
<style type="text/css">
	.st0{fill:#FFFFFF;}
</style>
<path class="st0" d="M22,2H2C0.9,2,0,2.7,0,3.6v12.8C0,17.3,0.9,18,2,18h8l4,4v-4h2h6c1.1,0,2-0.7,2-1.6V3.6C24,2.7,23.1,2,22,2z
	 M8,11c-0.6,0-1-0.4-1-1c0-0.6,0.4-1,1-1s1,0.4,1,1C9,10.6,8.6,11,8,11z M12,11c-0.6,0-1-0.4-1-1c0-0.6,0.4-1,1-1s1,0.4,1,1
	C13,10.6,12.6,11,12,11z M16,11c-0.6,0-1-0.4-1-1c0-0.6,0.4-1,1-1s1,0.4,1,1C17,10.6,16.6,11,16,11z"/>
</svg>
