<?xml version="1.0" encoding="utf-8"?>
<!-- Generator: Adobe Illustrator 21.1.0, SVG Export Plug-In . SVG Version: 6.00 Build 0)  -->
<svg version="1.1" id="Layer_1" xmlns="http://www.w3.org/2000/svg" xmlns:xlink="http://www.w3.org/1999/xlink" x="0px" y="0px"
	 viewBox="0 0 24 24" style="enable-background:new 0 0 24 24;" xml:space="preserve">
<style type="text/css">
	.st0{fill:#FFFFFF;}
</style>
<path class="st0" d="M24,14v-4h-3.2c-0.2-1-0.6-1.9-1.2-2.8L21.8,5L19,2.2l-2.2,2.2C15.9,3.9,15,3.5,14,3.2V0h-4v3.2
	C9,3.5,8.1,3.9,7.2,4.4L5,2.2L2.2,5l2.2,2.2C3.9,8.1,3.5,9,3.2,10H0v4h3.2c0.2,1,0.6,1.9,1.2,2.8L2.2,19L5,21.8l2.2-2.2
	C8,20.1,9,20.5,10,20.8V24h4v-3.2c1-0.2,1.9-0.6,2.8-1.2l2.2,2.2l2.8-2.8l-2.2-2.2c0.5-0.8,0.9-1.8,1.2-2.8C20.8,14,24,14,24,14z
	 M12,16c-2.2,0-4-1.8-4-4s1.8-4,4-4s4,1.8,4,4S14.2,16,12,16z"/>
</svg>
