<?xml version="1.0" encoding="utf-8"?>
<!-- Generator: Adobe Illustrator 21.1.0, SVG Export Plug-In . SVG Version: 6.00 Build 0)  -->
<svg version="1.1" id="Layer_1" xmlns="http://www.w3.org/2000/svg" xmlns:xlink="http://www.w3.org/1999/xlink" x="0px" y="0px"
	 viewBox="0 0 24 24" style="enable-background:new 0 0 24 24;" xml:space="preserve">
<style type="text/css">
	.st0{fill:#FFFFFF;}
</style>
<g>
	<path class="st0" d="M19,7h-6v2h5.7c1.8,0,3.3,1.2,3.3,3s-1.5,3-3.3,3H13v2h6c2.8,0,5-2.2,5-5S21.8,7,19,7z"/>
	<path class="st0" d="M2,12c0-1.8,1.5-3,3.3-3H11V7H5c-2.8,0-5,2.2-5,5s2.2,5,5,5h6v-2H5.3C3.5,15,2,13.8,2,12z"/>
</g>
<rect x="8" y="11" class="st0" width="8" height="2"/>
</svg>
