<?xml version="1.0" encoding="utf-8"?>
<!-- Generator: Adobe Illustrator 22.0.1, SVG Export Plug-In . SVG Version: 6.00 Build 0)  -->
<svg version="1.1" id="Layer_1" xmlns="http://www.w3.org/2000/svg" xmlns:xlink="http://www.w3.org/1999/xlink" x="0px" y="0px"
	 viewBox="0 0 24 24" style="enable-background:new 0 0 24 24;" xml:space="preserve">
<style type="text/css">
	.st0{fill:#FFFFFF;}
</style>
<g>
	<polygon class="st0" points="18,6 18,0 16,0 16,6 16,8 18,8 24,8 24,6 	"/>
	<polygon class="st0" points="0,16 0,18 6,18 6,24 8,24 8,18 8,16 6,16 	"/>
	<polygon class="st0" points="6,6 0,6 0,8 6,8 8,8 8,6 8,0 6,0 	"/>
	<polygon class="st0" points="16,16 16,18 16,24 18,24 18,18 24,18 24,16 18,16 	"/>
</g>
</svg>
