<?xml version="1.0" encoding="utf-8"?>
<!-- Generator: Adobe Illustrator 22.0.1, SVG Export Plug-In . SVG Version: 6.00 Build 0)  -->
<svg version="1.1" id="Layer_1" xmlns="http://www.w3.org/2000/svg" xmlns:xlink="http://www.w3.org/1999/xlink" x="0px" y="0px"
	 viewBox="0 0 24 24" style="enable-background:new 0 0 24 24;" xml:space="preserve">
<style type="text/css">
	.st0{fill:#FFFFFF;}
</style>
<g>
	<path class="st0" d="M18.2,9.8L11,9V4c0-0.6-0.4-1-1-1S9,3.4,9,4v4v1.7V14l-4-1l-1,2l4.7,3.8C8.9,18.9,9.1,19,9.4,19H18
		c0.6,0,1-0.4,1-1v-7.2C19,10.3,18.6,9.9,18.2,9.8z"/>
	<polygon class="st0" points="10.1,24 18,24 18,20 10,20 	"/>
	<path class="st0" d="M8,7.4V4c0-1.1,0.9-2,2-2s2,0.9,2,2v3.4c1.2-0.7,2-2,2-3.4c0-2.2-1.8-4-4-4S6,1.8,6,4C6,5.5,6.8,6.8,8,7.4z"/>
</g>
</svg>
