<?xml version="1.0" encoding="utf-8"?>
<!-- Generator: Adobe Illustrator 22.0.1, SVG Export Plug-In . SVG Version: 6.00 Build 0)  -->
<svg version="1.1" id="Layer_1" xmlns="http://www.w3.org/2000/svg" xmlns:xlink="http://www.w3.org/1999/xlink" x="0px" y="0px"
	 viewBox="0 0 24 24" style="enable-background:new 0 0 24 24;" xml:space="preserve">
<style type="text/css">
	.st0{fill:#FFFFFF;}
</style>
<g>
	<path class="st0" d="M12,2c5.5,0,10,4.5,10,10s-4.5,10-10,10S2,17.5,2,12S6.5,2,12,2 M12,0C5.4,0,0,5.4,0,12s5.4,12,12,12
		s12-5.4,12-12S18.6,0,12,0L12,0z"/>
</g>
<g>
	<polygon class="st0" points="13,6 11,6 11,8 13,8 	"/>
</g>
<g>
	<polygon class="st0" points="13,10 11,10 11,18 13,18 	"/>
</g>
</svg>
