<?xml version="1.0" encoding="utf-8"?>
<!-- Generator: Adobe Illustrator 23.0.1, SVG Export Plug-In . SVG Version: 6.00 Build 0)  -->
<svg version="1.1" id="Layer_1" xmlns="http://www.w3.org/2000/svg" xmlns:xlink="http://www.w3.org/1999/xlink" x="0px" y="0px"
	 viewBox="0 0 24 24" style="enable-background:new 0 0 24 24;" xml:space="preserve">
<style type="text/css">
	.st0{fill:#FFFFFF;}
</style>
<path class="st0" d="M22,0H2C0.9,0,0,0.9,0,2v20c0,1.1,0.9,2,2,2h20c1.1,0,2-0.9,2-2V2C24,0.9,23.1,0,22,0z M4,12
	c0-4.1,3.1-7.4,7-7.9v3C8.7,7.6,7,9.6,7,12c0,1,0.3,2,0.8,2.8l-2.1,2.1C4.6,15.5,4,13.8,4,12z M12,20c-1.8,0-3.5-0.6-4.9-1.7
	l2.1-2.1C10,16.7,11,17,12,17c2.4,0,4.4-1.7,4.9-4h3C19.4,16.9,16.1,20,12,20z M16.9,11C16.5,9,15,7.5,13,7.1v-3
	c3.6,0.5,6.5,3.3,6.9,6.9H16.9z"/>
</svg>
