<?xml version="1.0" encoding="utf-8"?>
<!-- Generator: Adobe Illustrator 22.0.1, SVG Export Plug-In . SVG Version: 6.00 Build 0)  -->
<svg version="1.1" id="Layer_1" xmlns="http://www.w3.org/2000/svg" xmlns:xlink="http://www.w3.org/1999/xlink" x="0px" y="0px"
	 viewBox="0 0 24 24" style="enable-background:new 0 0 24 24;" xml:space="preserve">
<style type="text/css">
	.st0{fill:#FFFFFF;}
</style>
<g>
	<path class="st0" d="M17,3c2.8,0,5,2.2,5,5c0,1.4-0.5,2.6-1.5,3.6L12,20.2l-8.5-8.6C2.5,10.6,2,9.4,2,8c0-2.8,2.2-5,5-5
		c1.4,0,2.6,0.5,3.6,1.5L12,5.9l1.4-1.4C14.4,3.5,15.6,3,17,3 M17,1c-2,0-3.7,0.8-5,2.1C10.7,1.8,9,1,7,1C3.1,1,0,4.1,0,8
		c0,2,0.8,3.7,2.1,5L12,23l9.9-10c1.3-1.3,2.1-3,2.1-5C24,4.1,20.9,1,17,1L17,1z"/>
</g>
</svg>
