<?xml version="1.0" encoding="utf-8"?>
<!-- Generator: Adobe Illustrator 22.0.0, SVG Export Plug-In . SVG Version: 6.00 Build 0)  -->
<svg version="1.1" id="Layer_1" xmlns="http://www.w3.org/2000/svg" xmlns:xlink="http://www.w3.org/1999/xlink" x="0px" y="0px"
	 viewBox="0 0 24 24" style="enable-background:new 0 0 24 24;" xml:space="preserve">
<path d="M12,0C5.4,0,0,5.4,0,12c0,6.6,5.4,12,12,12s12-5.4,12-12C24,5.4,18.6,0,12,0z M11.8,19c-0.7,0-1.2-0.5-1.2-1.2
	c0-0.7,0.5-1.3,1.2-1.3c0.7,0,1.2,0.5,1.2,1.3C13,18.5,12.5,19,11.8,19z M13.7,11.5c-0.9,1-1.2,1.9-1.1,3l0,0.5H11l0-0.5
	c-0.1-1.1,0.2-2.3,1.2-3.5c0.9-1.1,1.4-1.9,1.4-2.8c0-1-0.6-1.7-1.9-1.7c-0.7,0-1.5,0.2-2,0.6L9.2,5.8C9.9,5.3,11,5,12.1,5
	c2.3,0,3.4,1.4,3.4,3C15.5,9.3,14.7,10.3,13.7,11.5z"/>
</svg>
